<svg viewBox="0 0 100 100" xmlns="http://www.w3.org/2000/svg">
  <g transform="translate(50, 50)">
    <path d="M -35,-35 L -30,-35 L -30,-30" stroke="#00d4ff" stroke-width="2.5" fill="none"/>
    <path d="M -35,35 L -30,35 L -30,30" stroke="#00d4ff" stroke-width="2.5" fill="none"/>
    <path d="M 35,-35 L 30,-35 L 30,-30" stroke="#ff00ff" stroke-width="2.5" fill="none"/>
    <path d="M 35,35 L 30,35 L 30,30" stroke="#ff00ff" stroke-width="2.5" fill="none"/>
    
    <line x1="-25" y1="-15" x2="25" y2="-15" stroke="#00d4ff" stroke-width="1" opacity="0.4"/>
    <line x1="-25" y1="15" x2="25" y2="15" stroke="#ff00ff" stroke-width="1" opacity="0.4"/>
    
    <!-- Envelope with delivery paths inspired by Mailu concept -->
    <!-- Envelope body -->
    <rect x="-14" y="-8" width="28" height="16" fill="none" stroke="#00d4ff" stroke-width="2.5"/>
    
    <!-- Envelope flap -->
    <path d="M -14,-8 L 0,3 L 14,-8" fill="none" stroke="#ff00ff" stroke-width="2.5" stroke-linejoin="miter"/>
    
    <!-- Delivery/movement paths (diagonal swooshes like in Mailu - top left to bottom right) -->
    <!-- Upper swoosh -->
    <path d="M -25,-15 Q -10,-5 5,5 Q 15,10 25,12" fill="none" stroke="#00d4ff" stroke-width="1.8" opacity="0.6"/>
    
    <!-- Middle swoosh -->
    <path d="M -26,-10 Q -10,0 5,10 Q 15,15 26,18" fill="none" stroke="#ff00ff" stroke-width="2" opacity="0.7"/>
    
    <!-- Lower swoosh -->
    <path d="M -25,-5 Q -10,5 5,15 Q 15,20 25,22" fill="none" stroke="#00d4ff" stroke-width="1.5" opacity="0.5"/>
    
    <!-- Movement arrow on main swoosh -->
    <path d="M 10,12 L 12,13 L 10,14" fill="none" stroke="#ff00ff" stroke-width="1.5" opacity="0.8"/>
    
    <!-- Small data packets moving along diagonal path -->
    <circle cx="-18" cy="-10" r="1.2" fill="#00d4ff" opacity="0.8"/>
    <circle cx="-8" cy="-2" r="1.2" fill="#ff00ff" opacity="0.7"/>
    <circle cx="3" cy="6" r="1" fill="#00d4ff" opacity="0.6"/>
    <circle cx="18" cy="14" r="1.2" fill="#ff00ff" opacity="0.8"/>
    
    <!-- @ symbol for email identity -->
    <circle cx="0" cy="12" r="4" fill="none" stroke="#ff00ff" stroke-width="1.5" opacity="0.7"/>
    <path d="M 0,12 L 0,15 Q 0,16 1,16" fill="none" stroke="#ff00ff" stroke-width="1.5" opacity="0.7"/>
    <circle cx="0" cy="12" r="1.5" fill="#ff00ff" opacity="0.5"/>
    
    <circle cx="-28" cy="0" r="2" fill="#00d4ff" opacity="0.8"/>
    <circle cx="28" cy="0" r="2" fill="#ff00ff" opacity="0.8"/>
  </g>
</svg>